<mxfile host="65bd71144e" compressed="false">
    <diagram id="JkeCzRaAXA9yDT0niHJ5" name="API">
        <mxGraphModel dx="1644" dy="800" grid="0" gridSize="10" guides="1" tooltips="1" connect="1" arrows="1" fold="1" page="1" pageScale="1" pageWidth="1400" pageHeight="850" background="#FFFFFF" math="0" shadow="0">
            <root>
                <mxCell id="0"/>
                <mxCell id="1" parent="0"/>
                <mxCell id="k7aemHpgfqK2G6UQP_n8-5" value="ConnectionsTable" style="outlineConnect=0;fontColor=#232F3E;gradientColor=none;fillColor=#3334B9;strokeColor=none;dashed=0;verticalLabelPosition=bottom;verticalAlign=top;align=center;html=1;fontSize=12;fontStyle=0;aspect=fixed;pointerEvents=1;shape=mxgraph.aws4.table;" parent="1" vertex="1">
                    <mxGeometry x="520" y="280" width="78" height="78" as="geometry"/>
                </mxCell>
                <mxCell id="JZLs2FqF0W2ko9GQ3f_p-9" style="edgeStyle=orthogonalEdgeStyle;rounded=0;orthogonalLoop=1;jettySize=auto;html=1;startArrow=none;startFill=0;strokeColor=#000000;" parent="1" source="k7aemHpgfqK2G6UQP_n8-33" target="k7aemHpgfqK2G6UQP_n8-15" edge="1">
                    <mxGeometry relative="1" as="geometry">
                        <mxPoint x="278" y="439" as="sourcePoint"/>
                    </mxGeometry>
                </mxCell>
                <mxCell id="3" value="$disconnect" style="edgeLabel;html=1;align=center;verticalAlign=middle;resizable=0;points=[];fontColor=#000000;labelBackgroundColor=none;" parent="JZLs2FqF0W2ko9GQ3f_p-9" vertex="1" connectable="0">
                    <mxGeometry x="0.4554" y="1" relative="1" as="geometry">
                        <mxPoint x="-18" y="-18" as="offset"/>
                    </mxGeometry>
                </mxCell>
                <mxCell id="JZLs2FqF0W2ko9GQ3f_p-10" style="edgeStyle=orthogonalEdgeStyle;rounded=0;orthogonalLoop=1;jettySize=auto;html=1;startArrow=none;startFill=0;strokeColor=#000000;" parent="1" source="k7aemHpgfqK2G6UQP_n8-33" target="k7aemHpgfqK2G6UQP_n8-19" edge="1">
                    <mxGeometry relative="1" as="geometry">
                        <mxPoint x="278" y="559" as="sourcePoint"/>
                        <Array as="points">
                            <mxPoint x="310" y="319"/>
                            <mxPoint x="310" y="439"/>
                        </Array>
                    </mxGeometry>
                </mxCell>
                <mxCell id="4" value="subscribe" style="edgeLabel;html=1;align=center;verticalAlign=middle;resizable=0;points=[];fontColor=#000000;labelBackgroundColor=none;" parent="JZLs2FqF0W2ko9GQ3f_p-10" vertex="1" connectable="0">
                    <mxGeometry x="0.3354" y="-1" relative="1" as="geometry">
                        <mxPoint x="1" y="41" as="offset"/>
                    </mxGeometry>
                </mxCell>
                <mxCell id="JZLs2FqF0W2ko9GQ3f_p-12" style="edgeStyle=orthogonalEdgeStyle;rounded=0;orthogonalLoop=1;jettySize=auto;html=1;startArrow=none;startFill=0;strokeColor=#000000;" parent="1" source="k7aemHpgfqK2G6UQP_n8-15" target="k7aemHpgfqK2G6UQP_n8-5" edge="1">
                    <mxGeometry relative="1" as="geometry"/>
                </mxCell>
                <mxCell id="k7aemHpgfqK2G6UQP_n8-15" value="OnDisconnect" style="outlineConnect=0;fontColor=#232F3E;gradientColor=none;fillColor=#D05C17;strokeColor=none;dashed=0;verticalLabelPosition=bottom;verticalAlign=top;align=center;html=1;fontSize=12;fontStyle=0;aspect=fixed;pointerEvents=1;shape=mxgraph.aws4.lambda_function;" parent="1" vertex="1">
                    <mxGeometry x="360" y="280" width="78" height="78" as="geometry"/>
                </mxCell>
                <mxCell id="JZLs2FqF0W2ko9GQ3f_p-11" style="edgeStyle=orthogonalEdgeStyle;rounded=0;orthogonalLoop=1;jettySize=auto;html=1;startArrow=none;startFill=0;strokeColor=#000000;" parent="1" source="k7aemHpgfqK2G6UQP_n8-19" target="k7aemHpgfqK2G6UQP_n8-5" edge="1">
                    <mxGeometry relative="1" as="geometry"/>
                </mxCell>
                <mxCell id="k7aemHpgfqK2G6UQP_n8-19" value="OnSubscribe" style="outlineConnect=0;fontColor=#232F3E;gradientColor=none;fillColor=#D05C17;strokeColor=none;dashed=0;verticalLabelPosition=bottom;verticalAlign=top;align=center;html=1;fontSize=12;fontStyle=0;aspect=fixed;pointerEvents=1;shape=mxgraph.aws4.lambda_function;" parent="1" vertex="1">
                    <mxGeometry x="360" y="400" width="78" height="78" as="geometry"/>
                </mxCell>
                <mxCell id="JZLs2FqF0W2ko9GQ3f_p-5" style="edgeStyle=orthogonalEdgeStyle;rounded=0;orthogonalLoop=1;jettySize=auto;html=1;startArrow=none;startFill=0;strokeColor=#000000;" parent="1" source="k7aemHpgfqK2G6UQP_n8-28" target="k7aemHpgfqK2G6UQP_n8-33" edge="1">
                    <mxGeometry relative="1" as="geometry"/>
                </mxCell>
                <mxCell id="k7aemHpgfqK2G6UQP_n8-28" value="" style="outlineConnect=0;fontColor=#232F3E;gradientColor=none;fillColor=#232F3E;strokeColor=none;dashed=0;verticalLabelPosition=bottom;verticalAlign=top;align=center;html=1;fontSize=12;fontStyle=0;pointerEvents=1;shape=mxgraph.aws4.client;" parent="1" vertex="1">
                    <mxGeometry x="40" y="280" width="78" height="78" as="geometry"/>
                </mxCell>
                <mxCell id="k7aemHpgfqK2G6UQP_n8-31" value="&lt;span style=&quot;text-align: left&quot;&gt;OnConnect&lt;/span&gt;" style="outlineConnect=0;fontColor=#232F3E;gradientColor=none;fillColor=#D05C17;strokeColor=none;dashed=0;verticalLabelPosition=bottom;verticalAlign=top;align=center;html=1;fontSize=12;fontStyle=0;aspect=fixed;pointerEvents=1;shape=mxgraph.aws4.lambda_function;" parent="1" vertex="1">
                    <mxGeometry x="360" y="160" width="78" height="78" as="geometry"/>
                </mxCell>
                <mxCell id="JZLs2FqF0W2ko9GQ3f_p-6" value="$connect" style="edgeStyle=orthogonalEdgeStyle;rounded=0;orthogonalLoop=1;jettySize=auto;html=1;startArrow=none;startFill=0;strokeColor=#000000;labelBackgroundColor=none;fontColor=#000000;" parent="1" source="k7aemHpgfqK2G6UQP_n8-33" target="k7aemHpgfqK2G6UQP_n8-31" edge="1">
                    <mxGeometry x="0.4059" y="19" relative="1" as="geometry">
                        <Array as="points">
                            <mxPoint x="239" y="199"/>
                        </Array>
                        <mxPoint as="offset"/>
                    </mxGeometry>
                </mxCell>
                <mxCell id="k7aemHpgfqK2G6UQP_n8-33" value="PushNotificationEndpoint" style="outlineConnect=0;fontColor=#232F3E;gradientColor=none;fillColor=#b0074c;strokeColor=none;dashed=0;verticalLabelPosition=bottom;verticalAlign=top;align=center;html=1;fontSize=12;fontStyle=0;aspect=fixed;pointerEvents=1;shape=mxgraph.aws4.endpoint;" parent="1" vertex="1">
                    <mxGeometry x="200" y="280" width="78" height="78" as="geometry"/>
                </mxCell>
                <mxCell id="JZLs2FqF0W2ko9GQ3f_p-20" style="edgeStyle=orthogonalEdgeStyle;rounded=0;orthogonalLoop=1;jettySize=auto;html=1;startArrow=none;startFill=0;strokeColor=#000000;" parent="1" source="JZLs2FqF0W2ko9GQ3f_p-17" target="k7aemHpgfqK2G6UQP_n8-33" edge="1">
                    <mxGeometry relative="1" as="geometry">
                        <mxPoint x="278" y="679" as="sourcePoint"/>
                    </mxGeometry>
                </mxCell>
                <mxCell id="JZLs2FqF0W2ko9GQ3f_p-17" value="PushMessage" style="outlineConnect=0;fontColor=#232F3E;gradientColor=none;fillColor=#D05C17;strokeColor=none;dashed=0;verticalLabelPosition=bottom;verticalAlign=top;align=center;html=1;fontSize=12;fontStyle=0;aspect=fixed;pointerEvents=1;shape=mxgraph.aws4.lambda_function;" parent="1" vertex="1">
                    <mxGeometry x="360" y="520" width="78" height="78" as="geometry"/>
                </mxCell>
                <mxCell id="5" style="edgeStyle=orthogonalEdgeStyle;rounded=0;orthogonalLoop=1;jettySize=auto;html=1;startArrow=none;startFill=0;strokeColor=#000000;" parent="1" source="k7aemHpgfqK2G6UQP_n8-31" target="k7aemHpgfqK2G6UQP_n8-5" edge="1">
                    <mxGeometry relative="1" as="geometry">
                        <mxPoint x="447.999112850026" y="449" as="sourcePoint"/>
                        <mxPoint x="530" y="449" as="targetPoint"/>
                    </mxGeometry>
                </mxCell>
                <mxCell id="U6gjtYL4JbJGZCzFJInC-8" style="edgeStyle=orthogonalEdgeStyle;rounded=0;orthogonalLoop=1;jettySize=auto;html=1;startArrow=none;startFill=0;strokeColor=#000000;" edge="1" parent="1" source="JZLs2FqF0W2ko9GQ3f_p-17" target="k7aemHpgfqK2G6UQP_n8-5">
                    <mxGeometry relative="1" as="geometry">
                        <mxPoint x="447.999112850026" y="449" as="sourcePoint"/>
                        <mxPoint x="569" y="367.9991121835732" as="targetPoint"/>
                        <Array as="points">
                            <mxPoint x="640" y="559"/>
                            <mxPoint x="640" y="319"/>
                        </Array>
                    </mxGeometry>
                </mxCell>
                <mxCell id="U6gjtYL4JbJGZCzFJInC-9" value="EventBus" style="sketch=0;outlineConnect=0;fontColor=#232F3E;gradientColor=none;fillColor=#B0084D;strokeColor=none;dashed=0;verticalLabelPosition=bottom;verticalAlign=top;align=center;html=1;fontSize=12;fontStyle=0;aspect=fixed;pointerEvents=1;shape=mxgraph.aws4.eventbridge_custom_event_bus_resource;" vertex="1" parent="1">
                    <mxGeometry x="600" y="640" width="78" height="69" as="geometry"/>
                </mxCell>
                <mxCell id="U6gjtYL4JbJGZCzFJInC-10" style="edgeStyle=orthogonalEdgeStyle;rounded=0;orthogonalLoop=1;jettySize=auto;html=1;startArrow=none;startFill=0;strokeColor=#000000;" edge="1" parent="1" source="U6gjtYL4JbJGZCzFJInC-9" target="JZLs2FqF0W2ko9GQ3f_p-17">
                    <mxGeometry relative="1" as="geometry">
                        <mxPoint x="447.999112850026" y="569" as="sourcePoint"/>
                        <mxPoint x="608" y="329" as="targetPoint"/>
                    </mxGeometry>
                </mxCell>
                <mxCell id="U6gjtYL4JbJGZCzFJInC-11" value="detail-type&amp;nbsp;=&amp;nbsp;Push Event" style="edgeLabel;html=1;align=center;verticalAlign=middle;resizable=0;points=[];fontColor=#000000;labelBackgroundColor=none;" vertex="1" connectable="0" parent="U6gjtYL4JbJGZCzFJInC-10">
                    <mxGeometry x="-0.1279" y="2" relative="1" as="geometry">
                        <mxPoint x="-19" y="14" as="offset"/>
                    </mxGeometry>
                </mxCell>
            </root>
        </mxGraphModel>
    </diagram>
</mxfile>